<svg id="Layer_1" data-name="Layer 1" xmlns="http://www.w3.org/2000/svg" viewBox="0 0 1867.5 1049.6"><defs><style>.cls-1,.cls-2{fill:#c00;}.cls-2{stroke:#000;}.cls-2,.cls-3{stroke-miterlimit:10;}.cls-3{fill:none;stroke:#de0000;stroke-width:12px;}</style></defs><path class="cls-1" d="M1661.91,736.43c94.48,37.09,177.86,81.63,247,131.93-243.16-101.82-575.45-164.52-941.83-164.52-358.34,0-684,60-925.67,157.88,92.71-65.54,209.77-120.93,344.14-162.48v-381h66.3V680.27c156-41.28,332.21-64.51,518.68-64.51q7.26,0,14.51,0V480.07h60.78V617c210,7.12,404.77,43.73,569.56,102.05V479.14h46.5V736.43Z" transform="translate(-41.44 -23)"/><polygon class="cls-1" points="1700.59 505.87 1700.59 532.05 1620.47 487.3 1620.47 456.14 1621.69 454.76 1700.59 505.87"/><polygon class="cls-1" points="1621.69 454.76 1620.47 456.14 1573.97 456.14 1573.97 461.33 1276.52 295.19 1004.41 462.5 1004.41 457.07 943.63 457.07 940.28 453.19 1186.74 295.19 805.5 61.89 400.61 295.19 344.14 295.19 341.57 292.14 805.5 0 1239.92 269 1288.96 239.25 1621.69 454.76"/><rect class="cls-1" x="1298.62" y="495.75" width="73.21" height="63.08"/><rect class="cls-1" x="1298.62" y="418.98" width="73.21" height="63.08"/><rect class="cls-1" x="1203.31" y="495.75" width="73.21" height="63.08"/><rect class="cls-1" x="1203.31" y="418.98" width="73.21" height="63.08"/><polygon class="cls-1" points="943.63 457.07 943.63 499.87 873.87 542.77 872.63 542.74 873.87 495.75 940.28 453.19 943.63 457.07"/><rect class="cls-1" x="822.07" y="349.94" width="103.6" height="89.27"/><rect class="cls-1" x="822.07" y="239.25" width="103.6" height="89.27"/><rect class="cls-1" x="690.85" y="349.94" width="103.6" height="89.27"/><rect class="cls-1" x="690.85" y="239.25" width="103.6" height="89.27"/><polygon class="cls-1" points="344.14 295.19 344.14 327.73 228.11 394.58 230.87 366.01 230.87 361.85 341.57 292.14 344.14 295.19"/><line class="cls-2" x1="1313.8" y1="295.2" x2="1310.9" y2="296.77"/><line class="cls-2" x1="1313.8" y1="295.2" x2="1310.46" y2="296.44"/><polygon class="cls-1" points="1310.3 298.92 970.63 484.22 1029.7 423.68 1061.8 390.78 1115.95 370.67 1275.93 272.3 1309.86 298.58 1310.3 298.92"/><path class="cls-3" d="M347.26,803q43.51,119.65,87,239.32-38,10.9-75.68,22.92L260.27,826.37Q303.61,814,347.26,803Z" transform="translate(-41.44 -23)"/><path class="cls-3" d="M543.19,836.89q7.53,86.82,17.61,173.38-41.06,9.27-81.77,19.82-44-80.28-90.37-159.24,31.07-7.79,62.29-14.91c18.4,37.42,36.19,75.15,52.07,113.71-6.31-29.26-12.29-58.6-17.21-88.13q-2.73-16-5.42-32Q511.74,842.85,543.19,836.89Z" transform="translate(-41.44 -23)"/><path class="cls-3" d="M653,818.79q34.46,80.43,66.54,161.83-28,4.32-55.93,9.15-4.85-14.76-9.75-29.5c-8,1.37-11.92,2.08-19.86,3.52q1.92,15.33,3.9,30.65-28.15,5.35-56.19,11.26-9-86.41-15.37-173Q609.58,825.09,653,818.79Zm-7.34,112.12c-8.83-22.71-16.94-45.68-24.95-68.69,1.15,24,2.28,48.19,5.51,72.07C634,932.91,637.88,932.23,645.67,930.91Z" transform="translate(-41.44 -23)"/><path class="cls-3" d="M980.35,723.61q-23.55,52.56-44.69,106.1Q966,892,993.79,955.51q-41,1.46-81.88,4.12-20.45-49.44-42.25-98.3,5.12,50.34,10.21,100.69-39.52,3.33-78.91,7.76-17.31-118.26-34.61-236.54,44.8-3.71,89.7-6.12,4.63,45.63,9.26,91.26,14.55-46.78,30.74-93Q938.2,723.92,980.35,723.61Z" transform="translate(-41.44 -23)"/><path class="cls-3" d="M1132.39,888.94c-.43,11.31-.86,22.88-2.93,33.93-1.23,6.59-4.76,12.62-10.31,18s-13,9.48-22,12.38c-10.3,3.28-21.08,4-31.73,4.34a101,101,0,0,1-30.82-3.94c-9.08-2.72-16.58-6.77-22.31-12.31s-9.35-11.67-10.56-18.28c-2.11-11.42-2.28-23.34-2.76-35l-.9-27.75c-.28-11.53-.86-23.25.5-34.63.8-6.74,4.08-13,9.71-18.66s13.42-9.92,23.21-12.89c11.26-3.41,23.38-4.26,34.59-4,11,.2,22.7,1.56,33.62,5.07,9.81,3.15,17.73,7.61,23.54,13.43s9.2,12.09,10,18.64c1.38,11.31.66,23,.3,34.48C1133.05,872.6,1132.83,878.05,1132.39,888.94Zm-57.21-54q.09-11.2-1.65-14.37c-1.17-2.1-3.61-3.19-7.31-3.25q-4.7-.07-7.19,2.43t-2.47,14.94l.08,75.17q0,14,1.56,17.29c1,2.19,3.41,3.28,7.16,3.28s6.29-1.25,7.39-3.76,1.68-8.48,1.77-17.94Z" transform="translate(-41.44 -23)"/><path class="cls-3" d="M1345.12,813.85q-11.74,76.77-23.5,153.55-24.18-2.58-48.42-4.63,6.48-52.35,12.94-104.72-16.67,51.42-32.3,103.15-17.21-1.28-34.4-2.39-5.49-52.54-12-105-4.21,51.89-8.45,103.77-24.27-1.3-48.56-2.1,4.17-79.34,8.35-158.66,39.2,2.25,78.3,5.48c1.69,11.25,2.8,22.56,3.91,33.88q2.27,20.22,4.35,40.46,10.46-35.89,21.37-71.64Q1306,808.94,1345.12,813.85Z" transform="translate(-41.44 -23)"/><path class="cls-3" d="M1369.25,817.06q50.07,7,99.85,15.76l-6.66,29.92q-19.61-3.42-39.27-6.51l-5.72,28.6q18.12,2.79,36.2,5.84l-6.3,28.46q-17.8-2.94-35.64-5.6l-6.63,33.18q20.58,3,41.1,6.29l-6.72,29.89q-47.71-7.36-95.64-13Q1356.54,893.45,1369.25,817.06Z" transform="translate(-41.44 -23)"/><path class="cls-3" d="M1490.2,836.67q21.09,4,42.11,8.24c18.83,4,38.23,7.65,56.16,14.35,9.4,3.52,16.41,9.06,20.86,16.09,5.66,8.93,3.2,20.07.84,29-2.87,10.83-8,18.2-13.44,21.08s-14.46,3.29-27.13,1.35c10.72,4.31,17.51,8.49,20.41,12.45s4.41,7.34,4.53,10.13-1.62,10-5.26,21.59q-6,19-11.9,37.92-25.29-5.49-50.65-10.53,6.8-24.26,13.6-48.49,3.29-11.72,1.31-15.08c-1.32-2.24-5.89-4.17-13.71-5.73q-8.92,33-17.83,66.09-27.37-5.08-54.84-9.68Q1472.74,911.06,1490.2,836.67Zm52.68,36.93q-4.41,16.3-8.8,32.6c6.47,1.31,11.15,1.67,14.07,1s5.29-4.16,7.09-10.59l2.25-8q2-6.93-1.26-9.92C1554.09,876.73,1549.64,875,1542.88,873.6Z" transform="translate(-41.44 -23)"/><path class="cls-3" d="M1751.88,947q-26.31-7.86-52.74-15.26c1.54-4.14,2.31-6.22,3.86-10.37q2.7-7.25,1.38-9.82c-.87-1.7-2.91-3-6.11-3.89q-5.2-1.44-8.86.53c-2.43,1.31-4.29,3.8-5.61,7.45-1.69,4.7-1.91,8.53-.84,11.41s5.37,7.2,12.94,13c13.3,10.48,30.55,21.93,38.15,36.93,4.92,9.7,1.77,22.35-2.36,32.11s-8.72,16.48-14.08,20.13-13.63,5.67-24.74,6.1c-12.23.48-24.56-1.38-36.36-4.39-12.25-3.13-24.59-7.6-35.08-14.78-9-6.14-14.17-12.56-15.47-19.12s-.22-15.22,3.27-25.94l3-9.36q26,6.22,51.79,12.88c-2.46,6.85-3.7,10.28-6.16,17.12q-2.85,7.92-1.52,10.72c.89,1.88,3.15,3.28,6.78,4.22s6.69.71,9.17-.73,4.43-4,5.83-7.75c3.08-8.23,3.42-14.33.9-17.52-5.74-7.27-14-13.56-21.46-19.62-7.94-6.41-16.24-12.91-23.26-20.24a31.46,31.46,0,0,1-7.61-14.25c-1.42-5.62-.92-12.24,1.55-19.84q5.34-16.43,14.39-22.38c6-4,14.51-6.13,25.27-6.35a123,123,0,0,1,37.07,5.42c12.81,3.81,25.55,8.31,36.94,15.7,9.42,6.11,14.9,12.09,16.48,17.7s.11,13.86-4.35,24.79C1753.21,943.74,1752.77,944.83,1751.88,947Z" transform="translate(-41.44 -23)"/><rect class="cls-1" x="370.33" y="279.42" width="40.11" height="70.52"/></svg>