<svg id="Layer_1" data-name="Layer 1" xmlns="http://www.w3.org/2000/svg" viewBox="0 0 1867.5 1051.08"><defs><style>.cls-1,.cls-2{fill:#c00;}.cls-2{stroke:#000;}.cls-2,.cls-3{stroke-miterlimit:10;}.cls-3{fill:#fff;stroke:red;stroke-width:5px;}</style></defs><path class="cls-1" d="M1661.91,736.43c94.48,37.09,177.86,81.63,247,131.93-243.16-101.82-575.45-164.52-941.83-164.52-358.34,0-684,60-925.67,157.88,92.71-65.54,209.77-120.93,344.14-162.48v-381h66.3V680.27c156-41.28,332.21-64.51,518.68-64.51q7.26,0,14.51,0V480.07h60.78V617c210,7.12,404.77,43.73,569.56,102.05V479.14h46.5V736.43Z" transform="translate(-41.44 -23)"/><polygon class="cls-1" points="1700.59 505.87 1700.59 532.05 1620.47 487.3 1620.47 456.14 1621.69 454.76 1700.59 505.87"/><polygon class="cls-1" points="1621.69 454.76 1620.47 456.14 1573.97 456.14 1573.97 461.33 1276.52 295.19 1004.41 462.5 1004.41 457.07 943.63 457.07 940.28 453.19 1186.74 295.19 805.5 61.89 400.61 295.19 344.14 295.19 341.57 292.14 805.5 0 1239.92 269 1288.96 239.25 1621.69 454.76"/><rect class="cls-1" x="1298.62" y="495.75" width="73.21" height="63.08"/><rect class="cls-1" x="1298.62" y="418.98" width="73.21" height="63.08"/><rect class="cls-1" x="1203.31" y="495.75" width="73.21" height="63.08"/><rect class="cls-1" x="1203.31" y="418.98" width="73.21" height="63.08"/><polygon class="cls-1" points="943.63 457.07 943.63 499.87 873.87 542.77 872.63 542.74 873.87 495.75 940.28 453.19 943.63 457.07"/><rect class="cls-1" x="822.07" y="349.94" width="103.6" height="89.27"/><rect class="cls-1" x="822.07" y="239.25" width="103.6" height="89.27"/><rect class="cls-1" x="690.85" y="349.94" width="103.6" height="89.27"/><rect class="cls-1" x="690.85" y="239.25" width="103.6" height="89.27"/><polygon class="cls-1" points="344.14 295.19 344.14 327.73 228.11 394.58 230.87 366.01 230.87 361.85 341.57 292.14 344.14 295.19"/><line class="cls-2" x1="1313.8" y1="295.2" x2="1310.9" y2="296.77"/><line class="cls-2" x1="1313.8" y1="295.2" x2="1310.46" y2="296.44"/><polygon class="cls-1" points="1310.3 298.92 970.63 484.22 1029.7 423.68 1061.8 390.78 1115.95 370.67 1275.93 272.3 1309.86 298.58 1310.3 298.92"/><path class="cls-3" d="M340.36,797.24l91.95,250.42q-38.24,11.1-76.1,23.34L252.31,821.12Q296.17,808.52,340.36,797.24Z" transform="translate(-41.44 -23)"/><path class="cls-3" d="M539.57,833.73q8.64,90.79,20,181.29-41.29,9.45-82.25,20.2Q431.59,951.1,383.4,868.37q31.39-7.93,63-15.21c19.17,39.19,37.71,78.72,54.3,119.09-6.8-30.61-13.26-61.29-18.63-92.18q-3-16.76-5.92-33.51Q507.78,839.81,539.57,833.73Z" transform="translate(-41.44 -23)"/><path class="cls-3" d="M650.57,815.27q35.63,84.26,68.73,169.52-28.2,4.4-56.28,9.33-5.07-15.45-10.16-30.89c-8,1.4-12,2.12-20,3.59q2.13,16,4.28,32.06-28.32,5.48-56.52,11.49Q570.45,920,563,829.42,606.67,821.7,650.57,815.27ZM644.26,932.5c-9.15-23.79-17.59-47.85-25.94-71.94,1.43,25.15,2.83,50.41,6.35,75.38C632.5,934.53,636.42,933.84,644.26,932.5Z" transform="translate(-41.44 -23)"/><path class="cls-3" d="M981.38,716.39q-23.77,55-45,111,30.87,65.24,58.93,131.7-41.26,1.5-82.44,4.24-20.79-51.78-43-102.94,5.39,52.7,10.78,105.39-39.79,3.4-79.44,7.94L764.68,726.14q45.38-3.78,90.83-6.22,4.89,47.76,9.77,95.52,14.51-48.93,30.74-97.3Q938.7,716.69,981.38,716.39Z" transform="translate(-41.44 -23)"/><path class="cls-3" d="M1135,889.37c-.59,11.85-.91,23.89-3,35.5-1.26,6.89-4.82,13.21-10.42,18.86s-13.08,9.94-22.22,13c-10.35,3.44-21.21,4.18-31.94,4.56a97.87,97.87,0,0,1-31-4.11c-9.15-2.84-16.7-7.08-22.48-12.88s-9.43-12.22-10.67-19.13c-2.13-12-2.32-24.43-2.82-36.65l-1-29c-.29-12.07-.9-24.33.46-36.25.81-7.05,4.12-13.62,9.79-19.52s13.56-10.37,23.46-13.48c11.37-3.57,23.64-4.46,35-4.25,11.07.22,23,1.63,34,5.29,9.91,3.29,17.91,8,23.78,14s9.27,12.64,10.07,19.49c1.37,11.85.62,24.09.23,36.09Zm-57.67-56.5c.07-7.81-.48-12.83-1.66-15s-3.64-3.34-7.38-3.4c-3.16-.05-5.59.8-7.26,2.55s-2.51,7-2.5,15.62l.07,78.67q0,14.67,1.57,18.1c1,2.28,3.44,3.42,7.21,3.42s6.35-1.31,7.45-3.93,1.7-8.89,1.79-18.78Q1077,871.48,1077.34,832.87Z" transform="translate(-41.44 -23)"/><path class="cls-3" d="M1350.24,810.38q-12.42,80.29-24.85,160.59-24.35-2.61-48.74-4.68l13.68-109.53q-17.13,53.81-33.18,108-17.31-1.29-34.64-2.41-5.28-54.94-11.64-109.76l-8.94,108.57q-24.43-1.33-48.9-2.11l8.85-166q39.63,2.29,79.16,5.61c1.66,11.76,2.73,23.59,3.79,35.43q2.16,21.13,4.19,42.3,10.76-37.56,22-75Q1310.68,805.36,1350.24,810.38Z" transform="translate(-41.44 -23)"/><path class="cls-3" d="M1374.63,813.66q50.61,7.17,100.91,16.11-3.52,15.65-7,31.28-19.8-3.48-39.65-6.65-3,15-6,29.91,18.29,2.84,36.53,6L1452.67,920q-17.94-3-35.94-5.69-3.49,17.34-7,34.69,20.73,3.06,41.42,6.39L1444,986.65q-48-7.47-96.28-13.2Z" transform="translate(-41.44 -23)"/><path class="cls-3" d="M1496.87,833.71q21.3,4.08,42.54,8.42c19,4.06,38.66,7.81,56.72,14.71,9.48,3.62,16.66,9.36,20.92,16.67,5.27,9,3.59,20.72.47,30.24-3.79,11.52-8.36,19-13.9,22.06s-14.68,3.51-27.46,1.55c10.78,4.44,17.6,8.77,20.47,12.89s4.35,7.62,4.45,10.53-1.79,10.43-5.64,22.55q-6.29,19.81-12.56,39.62-25.45-5.57-51-10.68,7.18-25.34,14.36-50.67,3.48-12.24,1.53-15.74c-1.31-2.33-5.91-4.33-13.79-5.92L1515.15,999q-27.57-5.17-55.21-9.81ZM1549.78,872l-9.29,34.07q9.78,2,14.22,1T1562,896l2.38-8.38q2.05-7.26-1.15-10.35C1561.1,875.24,1556.61,873.47,1549.78,872Z" transform="translate(-41.44 -23)"/><path class="cls-3" d="M1760.45,947.37q-26.55-8-53.22-15.55c1.63-4.34,2.45-6.5,4.08-10.83q2.85-7.59,1.56-10.25t-6.14-4q-5.26-1.47-9,.61t-5.8,7.8c-1.78,4.9-2.07,8.9-1,11.9s5.33,7.46,12.9,13.42c13.33,10.86,30.7,22.81,38,38.22,4.86,10.18,1.37,23.32-3,33.45s-9.12,17.21-14.61,21.06-13.89,6-25.14,6.53c-12.33.59-24.78-1.25-36.68-4.31-12.33-3.17-24.75-7.76-35.21-15.15-9-6.34-14.12-13-15.33-19.84s0-15.87,3.69-27.06c1.28-3.91,1.93-5.87,3.22-9.78q26.16,6.31,52.2,13.1c-2.61,7.15-3.91,10.73-6.51,17.88q-3,8.26-1.71,11.18c.87,1.95,3.13,3.39,6.79,4.35s6.75.69,9.28-.82,4.55-4.21,6-8.12c3.25-8.59,3.7-14.95,1.2-18.26-5.66-7.49-13.89-14-21.4-20.3-8-6.64-16.27-13.39-23.25-21A32.39,32.39,0,0,1,1634,926.8c-1.36-5.85-.46-12.91,1.85-20.69s7.67-18.56,14.9-23.43c6.16-4.15,14.79-6.46,25.71-6.75a120.86,120.86,0,0,1,37.51,5.44c12.94,3.9,25.8,8.51,37.23,16.14,9.46,6.31,14.93,12.51,16.43,18.33s-.12,14.44-4.82,25.85C1761.85,944,1761.38,945.1,1760.45,947.37Z" transform="translate(-41.44 -23)"/><rect class="cls-1" x="370.33" y="279.42" width="40.11" height="70.52"/></svg>