<svg id="Layer_1" data-name="Layer 1" xmlns="http://www.w3.org/2000/svg" viewBox="0 0 1867.5 1052.49"><defs><style>.cls-1,.cls-2{fill:#c00;}.cls-2{stroke:#000;stroke-miterlimit:10;}.cls-3{fill:#a30f7d;}</style></defs><path class="cls-1" d="M1661.91,736.43c94.48,37.09,177.86,81.63,247,131.93-243.16-101.82-575.45-164.52-941.83-164.52-358.34,0-684,60-925.67,157.88,92.71-65.54,209.77-120.93,344.14-162.48v-381h66.3V680.27c156-41.28,332.21-64.51,518.68-64.51q7.26,0,14.51,0V480.07h60.78V617c210,7.12,404.77,43.73,569.56,102.05V479.14h46.5V736.43Z" transform="translate(-41.44 -23)"/><polygon class="cls-1" points="1700.59 505.87 1700.59 532.05 1620.47 487.3 1620.47 456.14 1621.69 454.76 1700.59 505.87"/><polygon class="cls-1" points="1621.69 454.76 1620.47 456.14 1573.97 456.14 1573.97 461.33 1276.52 295.19 1004.41 462.5 1004.41 457.07 943.63 457.07 940.28 453.19 1186.74 295.19 805.5 61.89 400.61 295.19 344.14 295.19 341.57 292.14 805.5 0 1239.92 269 1288.96 239.25 1621.69 454.76"/><rect class="cls-1" x="1298.62" y="495.75" width="73.21" height="63.08"/><rect class="cls-1" x="1298.62" y="418.98" width="73.21" height="63.08"/><rect class="cls-1" x="1203.31" y="495.75" width="73.21" height="63.08"/><rect class="cls-1" x="1203.31" y="418.98" width="73.21" height="63.08"/><polygon class="cls-1" points="943.63 457.07 943.63 499.87 873.87 542.77 872.63 542.74 873.87 495.75 940.28 453.19 943.63 457.07"/><rect class="cls-1" x="822.07" y="349.94" width="103.6" height="89.27"/><rect class="cls-1" x="822.07" y="239.25" width="103.6" height="89.27"/><rect class="cls-1" x="690.85" y="349.94" width="103.6" height="89.27"/><rect class="cls-1" x="690.85" y="239.25" width="103.6" height="89.27"/><polygon class="cls-1" points="344.14 295.19 344.14 327.73 228.11 394.58 230.87 366.01 230.87 361.85 341.57 292.14 344.14 295.19"/><line class="cls-2" x1="1313.8" y1="295.2" x2="1310.9" y2="296.77"/><line class="cls-2" x1="1313.8" y1="295.2" x2="1310.46" y2="296.44"/><polygon class="cls-1" points="1310.3 298.92 970.63 484.22 1029.7 423.68 1061.8 390.78 1115.95 370.67 1275.93 272.3 1309.86 298.58 1310.3 298.92"/><path class="cls-3" d="M335.21,792.84q47.88,129.49,95.77,259-38.39,11.25-76.38,23.65L246.37,817.08Q290.62,804.28,335.21,792.84Z" transform="translate(-41.44 -23)"/><path class="cls-3" d="M536.88,831.35q9.51,93.87,21.86,187.41-41.46,9.57-82.58,20.47-47-87.09-96.65-172.75,31.64-8,63.43-15.42c19.76,40.57,38.88,81.49,56,123.25-7.17-31.64-14-63.36-19.73-95.3q-3.19-17.31-6.31-34.65Q504.84,837.52,536.88,831.35Z" transform="translate(-41.44 -23)"/><path class="cls-3" d="M648.75,812.64q36.53,87.2,70.4,175.45-28.3,4.45-56.52,9.47-5.22-16-10.47-32c-8,1.43-12.06,2.16-20.1,3.65q2.28,16.57,4.58,33.15-28.44,5.55-56.76,11.65Q568.77,920.65,560.47,827,604.51,819.14,648.75,812.64ZM643.26,933.8c-9.41-24.63-18.1-49.52-26.7-74.45,1.63,26,3.25,52.13,7,77.94C631.43,935.86,635.37,935.16,643.26,933.8Z" transform="translate(-41.44 -23)"/><path class="cls-3" d="M982.09,710.91q-23.93,56.88-45.15,114.79Q968.16,893.2,996.45,962q-41.46,1.54-82.82,4.33Q892.57,912.72,870,859.76q5.61,54.51,11.21,109-40,3.47-79.79,8.07-19-128.05-38.05-256.12,45.79-3.81,91.68-6.28,5.08,49.39,10.16,98.81,14.44-50.6,30.71-100.6Q939,711.19,982.09,710.91Z" transform="translate(-41.44 -23)"/><path class="cls-3" d="M1136.89,889.79c-.61,12.26-1,24.71-3.1,36.73-1.27,7.12-4.86,13.66-10.5,19.51s-13.15,10.29-22.34,13.44c-10.38,3.56-21.31,4.34-32.09,4.74a96.28,96.28,0,0,1-31.18-4.24c-9.19-2.94-16.78-7.33-22.6-13.33s-9.49-12.64-10.73-19.79c-2.17-12.39-2.37-25.26-2.89-37.91l-1-30c-.3-12.48-.93-25.15.43-37.49.8-7.29,4.13-14.09,9.84-20.19s13.66-10.72,23.63-13.94c11.45-3.69,23.84-4.62,35.25-4.39a122.4,122.4,0,0,1,34.25,5.45c8.14,2.61,18,8.07,24,14.51,5.8,6.28,9.33,13.07,10.12,20.15,1.37,12.26.59,24.91.18,37.32Zm-58-58.39c.07-8.08-.48-13.27-1.67-15.54s-3.66-3.46-7.43-3.52q-4.79-.08-7.32,2.63T1060,831.14q0,40.68.07,81.36,0,15.18,1.58,18.72c1,2.36,3.45,3.54,7.25,3.54s6.37-1.35,7.48-4.07,1.72-9.19,1.81-19.42Z" transform="translate(-41.44 -23)"/><path class="cls-3" d="M1354,807.79l-25.89,166q-24.46-2.62-49-4.7,7.13-56.64,14.27-113.26-17.52,55.67-33.86,111.66-17.4-1.29-34.81-2.42-5.12-56.79-11.36-113.47-4.66,56.14-9.32,112.27-24.55-1.32-49.13-2.11l9.24-171.67q39.93,2.32,79.78,5.7c1.6,12.17,2.77,24.4,3.7,36.63q2.12,21.85,4.07,43.73,11-38.85,22.41-77.55Q1314.1,802.69,1354,807.79Z" transform="translate(-41.44 -23)"/><path class="cls-3" d="M1378.54,811.12q51,7.29,101.69,16.37l-7.34,32.33q-19.94-3.54-39.93-6.75l-6.3,30.92q18.4,2.88,36.76,6l-6.93,30.75q-18.06-3-36.16-5.76-3.64,17.93-7.3,35.85,20.84,3.1,41.64,6.46l-7.41,32.3q-48.26-7.53-96.73-13.3Q1364.53,893.71,1378.54,811.12Z" transform="translate(-41.44 -23)"/><path class="cls-3" d="M1501.72,831.49q21.45,4.14,42.86,8.55c19.16,4.12,39,7.94,57.13,15,9.53,3.7,16.73,9.59,21,17.12,5.26,9.37,3.4,21.41.16,31.19-3.94,11.92-8.67,19.83-14.24,22.83-8.19,4.4-18.86,2.58-27.72,1.72,10.84,4.54,17.66,9,20.52,13.2s4.31,7.86,4.37,10.86-1.91,10.76-5.92,23.29l-13.08,40.93q-25.58-5.62-51.23-10.78l15-52.36q3.62-12.66,1.68-16.26c-1.29-2.4-5.91-4.44-13.84-6q-9.83,35.7-19.63,71.39-27.69-5.21-55.46-9.89Q1482.48,911.85,1501.72,831.49Zm53.07,39.39-9.68,35.2c6.56,1.36,11.34,1.7,14.33,1s5.48-4.52,7.47-11.46c1-3.47,1.48-5.2,2.48-8.67q2.13-7.49-1.07-10.67C1566.17,874.15,1561.66,872.33,1554.79,870.88Z" transform="translate(-41.44 -23)"/><path class="cls-3" d="M1766.64,947.67q-26.7-8.13-53.55-15.77c1.69-4.48,2.54-6.71,4.24-11.19q3-7.83,1.7-10.57c-.85-1.82-2.91-3.2-6.16-4.12q-5.3-1.49-9.08.67t-6,8.07c-1.86,5.07-2.19,9.19-1.17,12.28s5.29,7.67,12.87,13.78c13.34,11.14,30.79,23.48,37.93,39.2,4.8,10.56,1.07,24.06-3.42,34.48s-9.44,17.79-15,21.77-14.09,6.27-25.44,6.88c-12.4.67-24.95-1.14-36.92-4.24-12.38-3.2-24.86-7.89-35.29-15.44-9-6.49-14.11-13.35-15.22-20.38-1.5-9.46,1.52-18.93,4-27.93l3.35-10.1q26.31,6.39,52.5,13.26c-2.72,7.39-4.07,11.08-6.78,18.47q-3.13,8.54-1.86,11.53t6.79,4.45q5.52,1.46,9.37-.89t6.18-8.4c3.39-8.88,3.92-15.43,1.44-18.83-5.6-7.67-13.84-14.39-21.36-20.83-8-6.82-16.27-13.75-23.21-21.51a33,33,0,0,1-7.39-15.25c-1.31-6-.8-13.52,2.08-21.35,3.17-8.6,7.07-18.58,15.28-24.24,6.27-4.31,15-6.73,26-7.07a119.35,119.35,0,0,1,37.84,5.45c13,4,26,8.67,37.44,16.47,9.48,6.46,14.93,12.83,16.38,18.82s-.31,14.89-5.2,26.67C1768.1,944.15,1767.62,945.32,1766.64,947.67Z" transform="translate(-41.44 -23)"/><rect class="cls-1" x="370.33" y="279.42" width="40.11" height="70.52"/></svg>